<svg width="1000" height="600" viewBox="0 0 1000 600" xmlns="http://www.w3.org/2000/svg">
  <defs>
    <style>
      .ocean { fill: #b3d9ff; }
      .land { fill: #e6f3ff; stroke: #4a90e2; stroke-width: 0.5; }
      .state-border { fill: none; stroke: #2e5c8a; stroke-width: 0.3; opacity: 0.8; }
      .coastline { fill: none; stroke: #1a4d7a; stroke-width: 1; }
      .major-city { fill: #ff6b6b; stroke: #d63031; stroke-width: 1; }
      .city-label { fill: #2d3436; font-family: Arial, sans-serif; font-size: 9px; font-weight: bold; text-anchor: middle; }
      .state-label { fill: #636e72; font-family: Arial, sans-serif; font-size: 7px; text-anchor: middle; }
      .rivers { fill: none; stroke: #4a90e2; stroke-width: 0.5; opacity: 0.6; }
    </style>
  </defs>

  <!-- Ocean background -->
  <rect width="1000" height="600" class="ocean"/>

  <!-- US Mainland (more realistic geographic shape) -->
  <path class="coastline" d="M80,280 L90,270 L100,275 L110,270 L120,280 L130,275 L140,285 L150,280 L160,290 L170,285 L180,295 L190,290 L200,300 L210,295 L220,305 L230,300 L240,310 L250,305 L260,315 L270,310 L280,320 L290,315 L300,325 L310,320 L320,330 L330,325 L340,335 L350,330 L360,340 L370,335 L380,345 L390,340 L400,350 L410,345 L420,355 L430,350 L440,360 L450,355 L460,365 L470,360 L480,370 L490,365 L500,375 L510,370 L520,380 L530,375 L540,385 L550,380 L560,390 L570,385 L580,395 L590,390 L600,400 L610,395 L620,405 L630,400 L640,410 L650,405 L660,415 L670,410 L680,420 L690,415 L700,425 L710,420 L720,430 L730,425 L740,435 L750,430 L760,440 L770,435 L780,445 L790,440 L800,450 L810,445 L820,455 L830,450 L840,460 L850,455 L860,465 L870,460 L880,470 L890,465 L900,475 L910,470 L920,480 L930,475 L940,485 L950,480 L960,490 L970,485 L980,495 L990,490 L1000,500 L1000,550 L950,560 L900,550 L850,560 L800,550 L750,560 L700,550 L650,560 L600,550 L550,560 L500,550 L450,560 L400,550 L350,560 L300,550 L250,560 L200,550 L150,560 L100,550 L50,560 L0,550 L0,300 L50,290 Z"/>

  <!-- Alaska (more realistic shape) -->
  <path class="land" d="M50,50 L120,30 L150,40 L170,35 L190,45 L180,60 L170,75 L160,90 L150,105 L140,120 L130,135 L120,125 L110,115 L100,105 L90,95 L80,85 L70,75 L60,65 L50,55 Z"/>
  <path class="coastline" d="M50,50 L120,30 L150,40 L170,35 L190,45 L180,60 L170,75 L160,90 L150,105 L140,120 L130,135 L120,125 L110,115 L100,105 L90,95 L80,85 L70,75 L60,65 L50,55 Z"/>

  <!-- Hawaii (more realistic islands) -->
  <path class="land" d="M200,520 L230,515 L250,525 L240,535 L220,540 L200,530 Z"/>
  <path class="coastline" d="M200,520 L230,515 L250,525 L240,535 L220,540 L200,530 Z"/>
  <path class="land" d="M260,510 L280,505 L290,515 L285,525 L270,530 L260,520 Z"/>
  <path class="coastline" d="M260,510 L280,505 L290,515 L285,525 L270,530 L260,520 Z"/>
  <path class="land" d="M300,500 L320,495 L330,505 L325,515 L310,520 L300,510 Z"/>
  <path class="coastline" d="M300,500 L320,495 L330,505 L325,515 L310,520 L300,510 Z"/>

  <!-- Great Lakes (simplified) -->
  <path class="rivers" d="M550,250 L570,240 L590,250 L580,260 L560,270 L540,260 Z"/>
  <path class="rivers" d="M580,240 L600,230 L620,240 L610,250 L590,260 L570,250 Z"/>
  <path class="rivers" d="M520,270 L540,260 L560,270 L550,280 L530,290 L510,280 Z"/>

  <!-- Mississippi River -->
  <path class="rivers" d="M450,300 L460,320 L470,340 L480,360 L490,380 L500,400 L510,420 L520,440 L530,460 L540,480 L550,500 L560,520 L570,540 L580,560 L590,580 L600,600"/>

  <!-- Major state boundaries (more realistic placement) -->
  <!-- West Coast -->
  <path class="state-border" d="M80,280 L80,550"/>
  <path class="state-border" d="M120,280 L120,550"/>
  <path class="state-border" d="M160,280 L160,550"/>
  <path class="state-border" d="M200,280 L200,550"/>

  <!-- Mountain West -->
  <path class="state-border" d="M240,280 L240,550"/>
  <path class="state-border" d="M280,280 L280,550"/>
  <path class="state-border" d="M320,280 L320,550"/>
  <path class="state-border" d="M360,280 L360,550"/>

  <!-- Central Plains -->
  <path class="state-border" d="M400,280 L400,550"/>
  <path class="state-border" d="M440,280 L440,550"/>
  <path class="state-border" d="M480,280 L480,550"/>
  <path class="state-border" d="M520,280 L520,550"/>

  <!-- Midwest -->
  <path class="state-border" d="M560,280 L560,550"/>
  <path class="state-border" d="M600,280 L600,550"/>
  <path class="state-border" d="M640,280 L640,550"/>
  <path class="state-border" d="M680,280 L680,550"/>

  <!-- East Coast -->
  <path class="state-border" d="M720,280 L720,550"/>
  <path class="state-border" d="M760,280 L760,550"/>
  <path class="state-border" d="M800,280 L800,550"/>
  <path class="state-border" d="M840,280 L840,550"/>
  <path class="state-border" d="M880,280 L880,550"/>
  <path class="state-border" d="M920,280 L920,550"/>

  <!-- Horizontal state lines -->
  <path class="state-border" d="M80,320 L920,320"/>
  <path class="state-border" d="M80,360 L920,360"/>
  <path class="state-border" d="M80,400 L920,400"/>
  <path class="state-border" d="M80,440 L920,440"/>
  <path class="state-border" d="M80,480 L920,480"/>
  <path class="state-border" d="M80,520 L920,520"/>

  <!-- Major cities with more accurate positions -->
  <!-- West Coast -->
  <circle cx="100" cy="340" r="3" class="major-city"/>
  <text x="100" y="365" class="city-label">Seattle</text>

  <circle cx="100" cy="380" r="3" class="major-city"/>
  <text x="100" y="405" class="city-label">Portland</text>

  <circle cx="120" cy="420" r="3" class="major-city"/>
  <text x="120" y="445" class="city-label">SF</text>

  <circle cx="120" cy="440" r="3" class="major-city"/>
  <text x="120" y="465" class="city-label">LA</text>

  <!-- Southwest -->
  <circle cx="180" cy="460" r="3" class="major-city"/>
  <text x="180" y="485" class="city-label">Phoenix</text>

  <circle cx="200" cy="440" r="3" class="major-city"/>
  <text x="200" y="465" class="city-label">Albuquerque</text>

  <!-- Mountain West -->
  <circle cx="240" cy="400" r="3" class="major-city"/>
  <text x="240" y="425" class="city-label">Denver</text>

  <circle cx="280" cy="380" r="3" class="major-city"/>
  <text x="280" y="405" class="city-label">Salt Lake</text>

  <!-- Central -->
  <circle cx="320" cy="420" r="3" class="major-city"/>
  <text x="320" y="445" class="city-label">Dallas</text>

  <circle cx="360" cy="400" r="3" class="major-city"/>
  <text x="360" y="425" class="city-label">Oklahoma City</text>

  <circle cx="400" cy="380" r="3" class="major-city"/>
  <text x="400" y="405" class="city-label">Kansas City</text>

  <!-- Midwest -->
  <circle cx="440" cy="360" r="3" class="major-city"/>
  <text x="440" y="385" class="city-label">Chicago</text>

  <circle cx="480" cy="380" r="3" class="major-city"/>
  <text x="480" y="405" class="city-label">St. Louis</text>

  <circle cx="520" cy="360" r="3" class="major-city"/>
  <text x="520" y="385" class="city-label">Indianapolis</text>

  <!-- South -->
  <circle cx="440" cy="440" r="3" class="major-city"/>
  <text x="440" y="465" class="city-label">Memphis</text>

  <circle cx="480" cy="420" r="3" class="major-city"/>
  <text x="480" y="445" class="city-label">Nashville</text>

  <circle cx="520" cy="440" r="3" class="major-city"/>
  <text x="520" y="465" class="city-label">Atlanta</text>

  <!-- East Coast -->
  <circle cx="560" cy="360" r="3" class="major-city"/>
  <text x="560" y="385" class="city-label">Detroit</text>

  <circle cx="600" cy="380" r="3" class="major-city"/>
  <text x="600" y="405" class="city-label">Cleveland</text>

  <circle cx="640" cy="360" r="3" class="major-city"/>
  <text x="640" y="385" class="city-label">Pittsburgh</text>

  <circle cx="680" cy="380" r="3" class="major-city"/>
  <text x="680" y="405" class="city-label">Philadelphia</text>

  <circle cx="720" cy="360" r="3" class="major-city"/>
  <text x="720" y="385" class="city-label">NYC</text>

  <circle cx="760" cy="380" r="3" class="major-city"/>
  <text x="760" y="405" class="city-label">Boston</text>

  <circle cx="800" cy="400" r="3" class="major-city"/>
  <text x="800" y="425" class="city-label">Washington DC</text>

  <!-- State labels with better positioning -->
  <text x="100" y="330" class="state-label">WA</text>
  <text x="100" y="370" class="state-label">OR</text>
  <text x="120" y="410" class="state-label">CA</text>
  <text x="160" y="370" class="state-label">NV</text>
  <text x="200" y="410" class="state-label">AZ</text>
  <text x="200" y="370" class="state-label">UT</text>
  <text x="240" y="350" class="state-label">CO</text>
  <text x="280" y="370" class="state-label">WY</text>
  <text x="320" y="390" class="state-label">KS</text>
  <text x="360" y="410" class="state-label">OK</text>
  <text x="400" y="370" class="state-label">MO</text>
  <text x="440" y="350" class="state-label">IL</text>
  <text x="480" y="370" class="state-label">IN</text>
  <text x="520" y="350" class="state-label">OH</text>
  <text x="560" y="370" class="state-label">MI</text>
  <text x="600" y="350" class="state-label">PA</text>
  <text x="640" y="370" class="state-label">NY</text>
  <text x="680" y="350" class="state-label">NJ</text>
  <text x="720" y="370" class="state-label">CT</text>
  <text x="760" y="350" class="state-label">MA</text>
  <text x="800" y="370" class="state-label">MD</text>
  <text x="840" y="350" class="state-label">VA</text>
  <text x="880" y="370" class="state-label">NC</text>
  <text x="920" y="350" class="state-label">SC</text>

  <text x="160" y="450" class="state-label">NM</text>
  <text x="200" y="470" class="state-label">TX</text>
  <text x="240" y="450" class="state-label">AR</text>
  <text x="280" y="470" class="state-label">LA</text>
  <text x="320" y="450" class="state-label">MS</text>
  <text x="360" y="470" class="state-label">AL</text>
  <text x="400" y="450" class="state-label">TN</text>
  <text x="440" y="470" class="state-label">GA</text>
  <text x="480" y="450" class="state-label">FL</text>
  <text x="520" y="470" class="state-label">FL</text>

  <!-- Alaska and Hawaii labels -->
  <text x="120" y="90" class="state-label">ALASKA</text>
  <text x="270" y="525" class="state-label">HAWAII</text>
</svg>